<?xml version="1.0" encoding="UTF-8" standalone="no"?>
<svg
   xmlns:dc="http://purl.org/dc/elements/1.1/"
   xmlns:cc="http://creativecommons.org/ns#"
   xmlns:rdf="http://www.w3.org/1999/02/22-rdf-syntax-ns#"
   xmlns:svg="http://www.w3.org/2000/svg"
   xmlns="http://www.w3.org/2000/svg"
   xmlns:sodipodi="http://sodipodi.sourceforge.net/DTD/sodipodi-0.dtd"
   xmlns:inkscape="http://www.inkscape.org/namespaces/inkscape"
   id="emoji"
   viewBox="0 0 72 72"
   version="1.1"
   sodipodi:docname="favicon.svg"
   inkscape:version="0.92.4 (5da689c313, 2019-01-14)">
  <metadata
     id="metadata42">
    <rdf:RDF>
      <cc:Work
         rdf:about="">
        <dc:format>image/svg+xml</dc:format>
        <dc:type
           rdf:resource="http://purl.org/dc/dcmitype/StillImage" />
      </cc:Work>
    </rdf:RDF>
  </metadata>
  <defs
     id="defs40" />
  <sodipodi:namedview
     pagecolor="#ffffff"
     bordercolor="#666666"
     borderopacity="1"
     objecttolerance="10"
     gridtolerance="10"
     guidetolerance="10"
     inkscape:pageopacity="0"
     inkscape:pageshadow="2"
     inkscape:window-width="1920"
     inkscape:window-height="1051"
     id="namedview38"
     showgrid="false"
     inkscape:zoom="3.2777778"
     inkscape:cx="36"
     inkscape:cy="36"
     inkscape:window-x="-9"
     inkscape:window-y="-9"
     inkscape:window-maximized="1"
     inkscape:current-layer="emoji" />
  <g
     id="color"
     transform="matrix(1.381356,0,0,1.381356,-13.866607,-14.338983)">
    <circle
       cx="36.000099"
       cy="36"
       r="24"
       id="circle2"
       style="fill:#fcea2b" />
    <polygon
       points="24.8037,32.8007 19.0485,38.4662 18.0524,30.452 10.8857,26.7292 18.1999,23.3052 19.5258,15.3389 25.0424,21.2371 33.0285,20.0364 29.1238,27.1056 32.7335,34.3298 "
       id="polygon4"
       style="fill:#f1b31c" />
    <polygon
       points="47.1208,32.8007 52.876,38.4662 53.8721,30.452 61.0388,26.7292 53.7246,23.3052 52.3987,15.3389 46.8821,21.2371 38.896,20.0364 42.8007,27.1056 39.191,34.3298 "
       id="polygon6"
       style="fill:#f1b31c" />
    <path
       d="m 49.7371,46.356 c -1.79,4.27 -6.35,7.23 -13.7,7.23 -7.41,0 -12.03,-3.03 -13.8,-7.36 2.03,0.46 14.98,3.1699 27.5,0.13 z"
       id="path8"
       inkscape:connector-curvature="0"
       style="fill:#ea5a47" />
    <path
       d="m 50.6071,41.866 c 0,1.6 -0.29,3.11 -0.87,4.49 -12.52,3.04 -25.47,0.33 -27.5,-0.13 -0.55,-1.35 -0.83,-2.82 -0.83,-4.36 h 0.11 c 0,0 14.81,3.59 28.89,0.07 z"
       id="path10"
       inkscape:connector-curvature="0"
       style="fill:#ffffff" />
  </g>
  <g
     id="hair" />
  <g
     id="skin" />
  <g
     id="skin-shadow" />
  <g
     id="line"
     transform="matrix(1.381356,0,0,1.381356,-13.866607,-14.338983)">
    <path
       stroke-miterlimit="10"
       d="M 50.0533,44.0367"
       id="path16"
       inkscape:connector-curvature="0"
       style="fill:none;stroke:#000000;stroke-width:2;stroke-linecap:round;stroke-linejoin:round;stroke-miterlimit:10" />
    <path
       stroke-miterlimit="10"
       d="M 21.9977,44.0367"
       id="path18"
       inkscape:connector-curvature="0"
       style="fill:none;stroke:#000000;stroke-width:2;stroke-linecap:round;stroke-linejoin:round;stroke-miterlimit:10" />
    <path
       stroke-miterlimit="10"
       d="m 50.6071,41.866 c 0,1.6 -0.29,3.11 -0.87,4.49 -12.52,3.04 -25.47,0.33 -27.5,-0.13 -0.55,-1.35 -0.83,-2.82 -0.83,-4.36 h 0.11 c 0,0 14.81,3.59 28.89,0.07 z"
       id="path20"
       inkscape:connector-curvature="0"
       style="fill:none;stroke:#000000;stroke-width:2;stroke-linecap:round;stroke-linejoin:round;stroke-miterlimit:10" />
    <path
       stroke-miterlimit="10"
       d="m 49.7371,46.356 c -1.79,4.27 -6.35,7.23 -13.7,7.23 -7.41,0 -12.03,-3.03 -13.8,-7.36 2.03,0.46 14.98,3.1699 27.5,0.13 z"
       id="path22"
       inkscape:connector-curvature="0"
       style="fill:none;stroke:#000000;stroke-width:2;stroke-linejoin:round;stroke-miterlimit:10" />
    <path
       stroke-miterlimit="10"
       d="m 50.2271,46.236 c -0.16,0.04 -0.33,0.08 -0.49,0.12"
       id="path24"
       inkscape:connector-curvature="0"
       style="fill:none;stroke:#000000;stroke-width:2;stroke-linejoin:round;stroke-miterlimit:10" />
    <path
       stroke-miterlimit="10"
       d="m 22.2371,46.226 c -0.19,-0.05 -0.28,-0.07 -0.28,-0.07"
       id="path26"
       inkscape:connector-curvature="0"
       style="fill:none;stroke:#000000;stroke-width:2;stroke-linejoin:round;stroke-miterlimit:10" />
    <path
       stroke-miterlimit="10"
       d="M 46.5542,15.5591 C 43.3932,13.9237 39.8045,13 36,13 c -3.9546,0 -7.676,0.9979 -10.9261,2.7556 -0.0502,0.0271 -0.1002,0.0544 -0.1501,0.0819"
       id="path28"
       inkscape:connector-curvature="0"
       style="fill:none;stroke:#000000;stroke-width:2;stroke-linecap:round;stroke-linejoin:round;stroke-miterlimit:10" />
    <path
       stroke-miterlimit="10"
       d="m 13.1945,32.9954 c -0.1283,0.9833 -0.1944,1.9862 -0.1944,3.0046 0,12.7022 10.2969,23 23,23 12.7022,0 23,-10.2978 23,-23 0,-1.0073 -0.0648,-1.9995 -0.1903,-2.9726"
       id="path30"
       inkscape:connector-curvature="0"
       style="fill:none;stroke:#000000;stroke-width:2;stroke-linecap:round;stroke-linejoin:round;stroke-miterlimit:10" />
    <polygon
       stroke-miterlimit="10"
       points="24.8792,32.8007 19.124,38.4662 18.1279,30.452 10.9612,26.7292 18.2754,23.3052 19.6013,15.3389 25.1179,21.2371 33.104,20.0364 29.1993,27.1056 32.809,34.3298 "
       id="polygon32"
       style="fill:none;stroke:#000000;stroke-width:2;stroke-linecap:round;stroke-linejoin:round;stroke-miterlimit:10" />
    <polygon
       stroke-miterlimit="10"
       points="47.1208,32.8007 52.876,38.4662 53.8721,30.452 61.0388,26.7292 53.7246,23.3052 52.3987,15.3389 46.8821,21.2371 38.896,20.0364 42.8007,27.1056 39.191,34.3298 "
       id="polygon34"
       style="fill:none;stroke:#000000;stroke-width:2;stroke-linecap:round;stroke-linejoin:round;stroke-miterlimit:10" />
  </g>
</svg>
